<?xml version="1.0" encoding="UTF-8" standalone="no"?>
<!DOCTYPE svg PUBLIC "-//W3C//DTD SVG 1.1//EN" "http://www.w3.org/Graphics/SVG/1.1/DTD/svg11.dtd">
<svg width="100%" height="100%" viewBox="0 0 1080 1080" version="1.1" xmlns="http://www.w3.org/2000/svg" xmlns:xlink="http://www.w3.org/1999/xlink" xml:space="preserve" xmlns:serif="http://www.serif.com/" style="fill-rule:evenodd;clip-rule:evenodd;stroke-linejoin:round;stroke-miterlimit:2;">
    <g id="angrand-logo">
        <rect x="0" y="0" width="1080" height="1080" style="fill:none;"/>
        <path d="M71.356,681.616C23.982,593.148 23.982,486.852 71.356,398.385C100.849,343.17 131.992,288.576 164.542,235.021C228.317,130.286 341.019,65.218 463.609,62.355C526.264,60.942 589.116,61.269 651.68,63.335C751.982,66.541 844.037,119.689 896.965,204.95C930.035,258.099 961.744,312.367 991.849,367.334C1050.66,474.932 1050.66,605.069 991.849,712.667C961.744,767.633 930.035,821.901 896.965,875.05C844.037,960.311 751.982,1013.46 651.68,1016.67C589.116,1018.73 526.264,1019.06 463.609,1017.65C341.019,1014.78 228.317,949.714 164.542,844.979C131.992,791.425 100.849,736.83 71.356,681.616Z" style="fill:rgb(138,138,138);"/>
        <path d="M71.356,681.616C23.982,593.148 23.982,486.852 71.356,398.385C100.849,343.17 131.992,288.576 164.542,235.021C228.317,130.286 341.019,65.218 463.609,62.355C526.264,60.942 589.116,61.269 651.68,63.335C751.982,66.541 844.037,119.689 896.965,204.95C930.035,258.099 961.744,312.367 991.849,367.334C1050.66,474.932 1050.66,605.069 991.849,712.667C961.744,767.633 930.035,821.901 896.965,875.05C844.037,960.311 751.982,1013.46 651.68,1016.67C589.116,1018.73 526.264,1019.06 463.609,1017.65C341.019,1014.78 228.317,949.714 164.542,844.979C131.992,791.425 100.849,736.83 71.356,681.616Z" style="fill:url(#_Linear1);"/>
        <path d="M71.356,681.616C23.982,593.148 23.982,486.852 71.356,398.385C100.849,343.17 131.992,288.576 164.542,235.021C228.317,130.286 341.019,65.218 463.609,62.355C526.264,60.942 589.116,61.269 651.68,63.335C751.982,66.541 844.037,119.689 896.965,204.95C930.035,258.099 961.744,312.367 991.849,367.334C1050.66,474.932 1050.66,605.069 991.849,712.667C961.744,767.633 930.035,821.901 896.965,875.05C844.037,960.311 751.982,1013.46 651.68,1016.67C589.116,1018.73 526.264,1019.06 463.609,1017.65C341.019,1014.78 228.317,949.714 164.542,844.979C131.992,791.425 100.849,736.83 71.356,681.616Z" style="fill:url(#_Linear2);"/>
        <g transform="matrix(1,0,0,-1,1.47793e-12,1080)">
            <path d="M670.626,196.835C686.551,169.253 686.712,135.308 671.05,107.576C655.388,79.844 626.235,62.455 594.391,61.851C550.762,61.231 507.067,61.373 463.467,62.358C340.978,65.264 228.378,130.274 164.616,234.899C141.964,272.166 119.993,309.936 98.785,348.068C83.4,375.923 83.882,409.834 100.053,437.24C116.224,464.646 145.676,481.464 177.497,481.464C239.765,481.538 311.562,481.543 372.145,481.543C380.57,481.543 388.848,479.326 396.145,475.113C428.663,456.338 523.215,401.748 555.733,382.974C563.03,378.761 569.09,372.702 573.303,365.405C603.594,312.939 639.493,250.76 670.626,196.835Z" style="fill:rgb(230,230,230);fill-opacity:0.3;"/>
        </g>
        <g transform="matrix(1,0,0,1,0.000114443,2.84217e-14)">
            <path d="M177.497,481.543C145.648,481.543 116.171,464.71 99.985,437.28C83.8,409.85 83.317,375.909 98.716,348.03C119.993,309.935 141.964,272.166 164.616,234.899C228.378,130.274 340.978,65.264 463.467,62.358C507.067,61.373 550.762,61.231 594.39,61.93C626.205,62.534 655.332,79.908 670.981,107.615C686.629,135.323 686.468,169.238 670.558,196.796C639.488,250.758 603.594,312.938 573.303,365.405C569.09,372.702 563.03,378.761 555.733,382.974C523.215,401.748 428.663,456.338 396.145,475.113C388.848,479.325 380.571,481.543 372.145,481.543L177.497,481.543Z" style="fill:rgb(230,230,230);fill-opacity:0.3;"/>
        </g>
        <g transform="matrix(1.56595,0,0,2.71231,-551.739,-1209.92)">
            <path d="M845.247,540.21C855.417,530.041 874.138,523.732 894.476,523.62C914.813,523.509 933.738,529.612 944.24,539.668C958.513,553.484 972.386,567.462 985.763,581.565C1023.27,621.211 1023.27,669.148 985.763,708.794C972.386,722.896 958.514,736.874 944.197,750.675C933.704,760.723 914.796,766.82 894.476,766.709C874.156,766.598 855.452,760.294 845.291,750.134C825.369,730.266 802.442,707.342 783.098,687.998C780.407,685.308 778.991,682.256 778.991,679.15C778.991,665.306 778.991,625.052 778.991,611.209C778.991,608.102 780.407,605.05 783.097,602.36C802.441,583.016 825.366,560.092 845.247,540.21Z" style="fill:rgb(230,230,230);fill-opacity:0.3;"/>
        </g>
    </g>
    <defs>
        <linearGradient id="_Linear1" x1="0" y1="0" x2="1" y2="0" gradientUnits="userSpaceOnUse" gradientTransform="matrix(1080,623.538,-623.538,1080,1.77636e-15,228.227)"><stop offset="0" style="stop-color:rgb(233,58,58);stop-opacity:1"/><stop offset="0.24" style="stop-color:rgb(205,77,77);stop-opacity:0.73"/><stop offset="0.5" style="stop-color:rgb(128,128,128);stop-opacity:0"/><stop offset="0.76" style="stop-color:rgb(83,187,187);stop-opacity:0.73"/><stop offset="1" style="stop-color:rgb(67,208,208);stop-opacity:1"/></linearGradient>
        <linearGradient id="_Linear2" x1="0" y1="0" x2="1" y2="0" gradientUnits="userSpaceOnUse" gradientTransform="matrix(623.538,-1080,1080,623.538,228.231,1080)"><stop offset="0" style="stop-color:black;stop-opacity:1"/><stop offset="0.5" style="stop-color:rgb(122,122,122);stop-opacity:0"/><stop offset="1" style="stop-color:rgb(245,245,245);stop-opacity:1"/></linearGradient>
    </defs>
</svg>
