<?xml version="1.0" encoding="UTF-8" standalone="no"?><!DOCTYPE svg PUBLIC "-//W3C//DTD SVG 1.1//EN" "http://www.w3.org/Graphics/SVG/1.1/DTD/svg11.dtd"><svg width="100%" height="100%" viewBox="0 0 648 216" version="1.1" xmlns="http://www.w3.org/2000/svg" xmlns:xlink="http://www.w3.org/1999/xlink" xml:space="preserve" xmlns:serif="http://www.serif.com/" style="fill-rule:evenodd;clip-rule:evenodd;stroke-linejoin:round;stroke-miterlimit:2;"><g id="Angrand-logo"><g transform="matrix(62.5196,0,0,62.5196,540.622,128.702)"></g><text x="271.725px" y="128.702px" style="font-family:'Bodotino-Regular', 'Bodotino';font-size:62.52px;fill:#221b1b;">A<tspan x="308.862px 348.5px 387.699px 424.586px 461.723px 500.985px " y="128.702px 128.702px 128.702px 128.702px 128.702px 128.702px ">NGRAND</tspan></text><rect x="272.98" y="78" width="265.638" height="1.107" style="fill:#221b1b;"/><rect x="272.98" y="136.893" width="265.638" height="1.107" style="fill:#221b1b;"/></g><g id="angrand-logo"><rect id="background" x="117" y="63" width="90" height="90" style="fill:none;"/><path d="M193.293,134.3c-0,0 -4.642,3.313 -11.807,7.45c-7.166,4.137 -12.356,6.5 -12.356,6.5c0,0 -3.034,1.296 -7.13,1.305c-4.096,0.01 -7.13,-1.305 -7.13,-1.305c-0,0 -5.19,-2.363 -12.356,-6.5c-7.165,-4.137 -11.807,-7.45 -11.807,-7.45c0,0 -2.639,-1.98 -4.695,-5.522c-2.056,-3.543 -2.435,-6.828 -2.435,-6.828c-0,0 -0.548,-5.676 -0.548,-13.95c-0,-8.274 0.548,-13.95 0.548,-13.95c-0,-0 0.395,-3.276 2.435,-6.828c2.04,-3.552 4.695,-5.522 4.695,-5.522c0,-0 4.642,-3.313 11.807,-7.45c7.166,-4.137 12.356,-6.5 12.356,-6.5c-0,-0 3.034,-1.296 7.13,-1.305c4.096,-0.01 7.13,1.305 7.13,1.305c0,-0 5.19,2.363 12.356,6.5c7.165,4.137 11.807,7.45 11.807,7.45c-0,-0 2.639,1.98 4.695,5.522c2.056,3.543 2.435,6.828 2.435,6.828c0,-0 0.548,5.676 0.548,13.95c0,8.274 -0.548,13.95 -0.548,13.95c0,0 -0.395,3.276 -2.435,6.828c-2.04,3.552 -4.695,5.522 -4.695,5.522Z" style="fill:url(#_Linear1);"/><path d="M193.293,134.3c-0,0 -4.642,3.313 -11.807,7.45c-7.166,4.137 -12.356,6.5 -12.356,6.5c0,0 -3.034,1.296 -7.13,1.305c-4.096,0.01 -7.13,-1.305 -7.13,-1.305c-0,0 -5.19,-2.363 -12.356,-6.5c-7.165,-4.137 -11.807,-7.45 -11.807,-7.45c0,0 -2.639,-1.98 -4.695,-5.522c-2.056,-3.543 -2.435,-6.828 -2.435,-6.828c-0,0 -0.548,-5.676 -0.548,-13.95c-0,-8.274 0.548,-13.95 0.548,-13.95c-0,-0 0.395,-3.276 2.435,-6.828c2.04,-3.552 4.695,-5.522 4.695,-5.522c0,-0 4.642,-3.313 11.807,-7.45c7.166,-4.137 12.356,-6.5 12.356,-6.5c-0,-0 3.034,-1.296 7.13,-1.305c4.096,-0.01 7.13,1.305 7.13,1.305c0,-0 5.19,2.363 12.356,6.5c7.165,4.137 11.807,7.45 11.807,7.45c-0,-0 2.639,1.98 4.695,5.522c2.056,3.543 2.435,6.828 2.435,6.828c0,-0 0.548,5.676 0.548,13.95c0,8.274 -0.548,13.95 -0.548,13.95c0,0 -0.395,3.276 -2.435,6.828c-2.04,3.552 -4.695,5.522 -4.695,5.522Z" style="fill:url(#_Linear2);"/><g id="block"><path d="M195.811,91.727c0.901,-0.521 2.003,-0.552 2.932,-0.085c0.93,0.467 1.561,1.371 1.681,2.404c-0.001,0.003 -0.001,0.004 -0.001,0.004c0,-0 0.548,5.676 0.548,13.95c0,8.274 -0.548,13.95 -0.548,13.95c0,0 -0.395,3.276 -2.435,6.828c-2.04,3.552 -4.695,5.522 -4.695,5.522c-0,0 -4.642,3.313 -11.807,7.45c-7.166,4.137 -12.356,6.5 -12.356,6.5c0,0 -0.007,0.004 -0.022,0.01c-0.954,0.405 -2.047,0.305 -2.911,-0.267c-0.864,-0.572 -1.384,-1.539 -1.384,-2.575c-0,-6.637 -0,-20.153 -0,-28.545c-0.001,-0.494 0.129,-0.979 0.376,-1.407l4.872,-8.437c0.247,-0.428 0.602,-0.783 1.029,-1.03l24.721,-14.272Z" style="fill:#b4b7bb;fill-opacity:0.36;"/><path d="M159.188,145.418c-0,1.04 -0.524,2.01 -1.393,2.582c-0.869,0.571 -1.968,0.666 -2.923,0.253c-0.001,-0.002 -0.002,-0.003 -0.002,-0.003c-0,0 -5.19,-2.363 -12.356,-6.5c-7.165,-4.137 -11.807,-7.45 -11.807,-7.45c0,0 -2.639,-1.98 -4.695,-5.522c-2.056,-3.543 -2.435,-6.828 -2.435,-6.828c-0,0 -0.548,-5.676 -0.548,-13.95c-0,-8.274 0.548,-13.95 0.548,-13.95c-0,-0 0.001,-0.008 0.003,-0.024c0.126,-1.029 0.759,-1.925 1.687,-2.388c0.927,-0.462 2.024,-0.429 2.922,0.089c5.748,3.318 17.453,10.076 24.721,14.272c0.427,0.247 0.782,0.602 1.029,1.03l4.872,8.437c0.247,0.428 0.376,0.913 0.376,1.407l0,28.545Z" style="fill:#b4b7bb;fill-opacity:0.36;"/><path d="M131.002,86.855c-0.901,-0.519 -1.48,-1.458 -1.54,-2.496c-0.06,-1.039 0.407,-2.038 1.242,-2.658c0.002,-0.001 0.003,-0.001 0.003,-0.001c0,-0 4.642,-3.313 11.807,-7.45c7.166,-4.137 12.356,-6.5 12.356,-6.5c-0,-0 3.034,-1.296 7.13,-1.305c4.096,-0.01 7.13,1.305 7.13,1.305c0,-0 5.19,2.363 12.356,6.5c7.165,4.137 11.807,7.45 11.807,7.45l0.002,0.001c0.832,0.625 1.295,1.626 1.233,2.665c-0.063,1.039 -0.643,1.978 -1.544,2.498c-5.753,3.321 -17.445,10.072 -24.706,14.264c-0.428,0.247 -0.913,0.377 -1.407,0.377l-9.742,-0c-0.494,-0 -0.979,-0.13 -1.407,-0.377l-24.72,-14.273Z" style="fill:#b4b7bb;fill-opacity:0.36;"/></g><g id="edge"><path d="M155.182,67.628c0.874,-0.323 3.497,-1.176 6.818,-1.183c3.254,-0.008 5.838,0.82 6.763,1.161c-1.487,-0.512 -3.136,-0.312 -4.462,0.559c-1.436,0.944 -2.301,2.547 -2.301,4.266c-0.009,-1.709 -0.87,-3.303 -2.297,-4.245c-1.342,-0.887 -3.016,-1.088 -4.521,-0.558Z" style="fill:#666a70;fill-opacity:0.3;"/><path d="M200.372,122.282c-0.157,0.917 -0.73,3.616 -2.384,6.496c-1.577,2.746 -3.522,4.547 -4.324,5.223c1.172,-1.062 1.791,-2.611 1.666,-4.197c-0.133,-1.68 -1.084,-3.187 -2.544,-4.03c1.488,0.857 3.307,0.911 4.843,0.144c1.438,-0.719 2.449,-2.068 2.743,-3.636Z" style="fill:#666a70;fill-opacity:0.3;"/><path d="M130.446,134.09c-0.716,-0.595 -2.767,-2.44 -4.434,-5.312c-1.634,-2.814 -2.208,-5.466 -2.376,-6.438c0.3,1.544 1.298,2.871 2.716,3.584c1.535,0.773 3.356,0.72 4.844,-0.139c-1.476,0.862 -2.425,2.404 -2.528,4.112c-0.096,1.605 0.567,3.155 1.778,4.193Z" style="fill:#666a70;fill-opacity:0.3;"/></g></g><defs><linearGradient id="_Linear1" x1="0" y1="0" x2="1" y2="0" gradientUnits="userSpaceOnUse" gradientTransform="matrix(90,51.9615,-51.9615,90,117,82.0189)"><stop offset="0" style="stop-color:#ef4343;stop-opacity:1"/><stop offset="0.26" style="stop-color:#db5353;stop-opacity:1"/><stop offset="0.74" style="stop-color:#57c0c0;stop-opacity:1"/><stop offset="1" style="stop-color:#43d0d0;stop-opacity:1"/></linearGradient><linearGradient id="_Linear2" x1="0" y1="0" x2="1" y2="0" gradientUnits="userSpaceOnUse" gradientTransform="matrix(51.9615,-90.0003,90.0003,51.9615,136.019,153)"><stop offset="0" style="stop-color:#000;stop-opacity:1"/><stop offset="0.45" style="stop-color:#c1c1c1;stop-opacity:0.21"/><stop offset="1" style="stop-color:#f5f5f5;stop-opacity:0"/></linearGradient></defs></svg>